Coordinates
version=1
nRows=37
nColumns=33
inDegrees=yes

Units are S.I. units (second, meters, Newtons, ...)
Angles are in degrees.

endheader
time	ground_thorax_rot_x	ground_thorax_rot_y	ground_thorax_rot_z	ground_thorax_tx	ground_thorax_ty	ground_thorax_tz	clav_prot_r	clav_elev_r	scapula_abduction_r	scapula_elevation_r	scapula_upward_rot_r	scapula_winging_r	shoulder_elv_r	plane_of_elev_r	axial_rot_r	elbow_flexion_r	pro_sup_r	wrist_flex_r	wrist_dev_r	clav_prot_l	clav_elev_l	scapula_abduction_l	scapula_elevation_l	scapula_upward_rot_l	scapula_winging_l	shoulder_elv_l	plane_of_elev_l	axial_rot_l	elbow_flexion_l	pro_sup_l	wrist_flex_l	wrist_dev_l	
1.2800	4.876980	-8.330631	10.766380	-0.113291	1.046884	0.009515	7.948661	-5.720898	21.011669	-4.221461	13.235270	-7.147293	46.949921	32.311655	-11.260617	70.828671	46.020832	10.681827	16.864280	7.881138	-10.825833	-12.862232	2.507950	-5.651317	0.767980	47.187454	35.669527	7.409774	79.292836	18.588594	-6.989171	-5.539416	
1.2900	4.936610	-8.418340	10.914591	-0.113323	1.047289	0.009413	8.044951	-5.616750	21.419788	-4.266956	13.627289	-7.347501	47.275626	32.480406	-12.036228	72.255285	46.400668	10.913891	16.410552	7.928963	-10.619471	-13.089995	2.479611	-5.273363	0.956210	47.411667	36.401616	7.928948	80.156849	18.726799	-7.089594	-5.591997	
1.3000	4.988499	-8.494594	11.038275	-0.113423	1.047648	0.009311	8.137978	-5.483369	21.817885	-4.284752	14.014161	-7.554878	47.587384	32.609612	-12.743839	73.743485	46.864243	11.069359	15.755772	8.015134	-10.409070	-13.388622	2.451307	-4.885488	1.174235	47.700226	37.092398	8.480746	81.046612	18.874767	-7.188951	-5.631872	
1.3100	5.042749	-8.561458	11.142160	-0.113570	1.047978	0.009217	8.210315	-5.337715	22.174610	-4.288376	14.391926	-7.750913	47.878604	32.724101	-13.352363	75.259072	47.411663	11.115015	14.865636	8.117235	-10.215654	-13.718397	2.440351	-4.493335	1.397786	48.032121	37.733886	9.044714	81.963137	19.024787	-7.288437	-5.667357	
1.3200	5.094045	-8.620875	11.243218	-0.113794	1.048261	0.009122	8.297006	-5.185144	22.528745	-4.270763	14.727137	-7.947831	48.179648	32.804268	-13.810027	76.810983	48.284138	10.936450	13.439015	8.247896	-10.014144	-14.095413	2.418724	-4.107604	1.642958	48.399343	38.329192	9.624769	82.913646	19.203649	-7.383898	-5.698979	
1.3300	5.152975	-8.672812	11.345992	-0.114056	1.048547	0.009036	8.361124	-5.063417	22.821291	-4.265698	15.022012	-8.108797	48.476272	32.882434	-14.115432	78.361449	49.349652	10.565902	11.632008	8.368368	-9.834990	-14.451107	2.411232	-3.737052	1.869977	48.761343	38.875589	10.174165	83.891259	19.383014	-7.477396	-5.742890	
1.3400	5.211876	-8.710272	11.451474	-0.114363	1.048807	0.008942	8.420338	-4.951263	23.081831	-4.255190	15.278068	-8.253122	48.775368	32.942993	-14.324729	79.928652	50.550217	10.059155	9.564719	8.489885	-9.651942	-14.800242	2.390172	-3.389168	2.094947	49.109052	39.396707	10.683340	84.894930	19.577626	-7.568089	-5.800642	
1.3500	5.283602	-8.733272	11.555573	-0.114655	1.049088	0.008851	8.426729	-4.871687	23.243572	-4.266822	15.516444	-8.346840	49.046167	33.020049	-14.503234	81.481010	51.534707	9.586685	7.703090	8.568948	-9.495695	-15.066533	2.381705	-3.070692	2.275034	49.399011	39.900877	11.101581	85.916317	19.751341	-7.663561	-5.890056	
1.3600	5.359120	-8.736183	11.651297	-0.114931	1.049369	0.008750	8.390441	-4.808165	23.322224	-4.286319	15.736877	-8.402363	49.294740	33.093509	-14.673781	83.040736	52.289708	9.174713	6.069443	8.617422	-9.351792	-15.270062	2.373363	-2.779721	2.424236	49.640021	40.398478	11.426164	86.953490	19.917169	-7.764248	-6.009823	
1.3700	5.428464	-8.712487	11.741021	-0.115196	1.049619	0.008616	8.319280	-4.739194	23.337011	-4.299438	15.951678	-8.435337	49.506385	33.142094	-14.933785	84.620090	52.623136	8.965553	4.936779	8.650531	-9.198263	-15.434575	2.344517	-2.517615	2.560144	49.816960	40.917512	11.662595	87.987799	20.096153	-7.878750	-6.160527	
1.3800	5.484205	-8.665893	11.830300	-0.115485	1.049809	0.008447	8.248481	-4.646252	23.338321	-4.285578	16.147953	-8.472053	49.689109	33.135954	-15.282411	86.241507	52.658681	8.938230	4.178816	8.698089	-9.018334	-15.611174	2.280199	-2.281953	2.709874	49.958804	41.448540	11.850663	89.023392	20.309228	-8.002521	-6.327462	
1.3900	5.527002	-8.603296	11.928280	-0.115804	1.049961	0.008251	8.181597	-4.553422	23.323315	-4.260126	16.309539	-8.502252	49.845268	33.069845	-15.688960	87.900782	52.472722	9.070141	3.705161	8.756685	-8.826858	-15.794767	2.194005	-2.072778	2.865575	50.068788	41.968569	11.991863	90.061804	20.555702	-8.131133	-6.509456	
1.4000	5.556073	-8.531901	12.027544	-0.116156	1.050105	0.008044	8.125146	-4.488668	23.292132	-4.240337	16.416216	-8.515280	49.997047	32.945275	-16.062797	89.597625	52.329846	9.216476	3.165319	8.820623	-8.649181	-15.981801	2.113652	-1.879152	3.016827	50.178684	42.443205	12.090593	91.107152	20.828736	-8.249452	-6.698102	
1.4100	5.580642	-8.456314	12.129004	-0.116536	1.050242	0.007833	8.074910	-4.456593	23.241929	-4.232423	16.474303	-8.508449	50.143187	32.776680	-16.396289	91.315846	52.225421	9.376377	2.575523	8.885626	-8.490996	-16.163802	2.043093	-1.704196	3.157850	50.288185	42.869441	12.150477	92.160233	21.121300	-8.356317	-6.891844	
1.4200	5.607933	-8.380014	12.226172	-0.116928	1.050395	0.007636	8.018688	-4.466860	23.155523	-4.246279	16.488196	-8.471606	50.277754	32.584212	-16.679058	93.043086	52.140647	9.548720	1.978036	8.934203	-8.377911	-16.311888	2.005729	-1.548193	3.267191	50.407625	43.236080	12.163270	93.218878	21.411154	-8.444022	-7.086959	
1.4300	5.646606	-8.305503	12.319509	-0.117324	1.050550	0.007455	7.956960	-4.513238	23.036573	-4.278251	16.462931	-8.408623	50.403902	32.375483	-16.904088	94.770683	52.066154	9.736135	1.393165	8.966493	-8.301627	-16.422514	1.990901	-1.418437	3.346328	50.533840	43.551906	12.131551	94.287700	21.693607	-8.516682	-7.283885	
1.4400	5.690575	-8.228054	12.417387	-0.117736	1.050704	0.007278	7.894682	-4.595208	22.889142	-4.325678	16.391930	-8.321057	50.519436	32.136329	-17.076702	96.504679	51.999775	9.946327	0.815421	8.989748	-8.255606	-16.503513	1.989009	-1.323535	3.400411	50.655908	43.829826	12.054846	95.354130	21.990197	-8.575791	-7.483513	
1.4500	5.742870	-8.151323	12.515653	-0.118163	1.050813	0.007096	7.840115	-4.695862	22.732165	-4.377029	16.284407	-8.222403	50.629678	31.867154	-17.203143	98.240617	51.935907	10.187583	0.248336	9.014566	-8.209730	-16.571981	1.973339	-1.261664	3.447881	50.764544	44.092884	11.951953	96.418146	22.312166	-8.633131	-7.687001	
1.4600	5.789079	-8.064484	12.620783	-0.118615	1.050896	0.006893	7.797692	-4.829030	22.569180	-4.441522	16.132446	-8.108195	50.737451	31.536751	-17.296351	99.990846	51.886170	10.484150	-0.335913	9.050028	-8.165322	-16.641879	1.943714	-1.236112	3.493527	50.847180	44.347040	11.811502	97.464016	22.706048	-8.686770	-7.897548	
1.4700	5.834182	-7.975006	12.723488	-0.119080	1.050952	0.006686	7.767405	-4.994062	22.404178	-4.520536	15.941914	-7.980125	50.840375	31.157347	-17.352989	101.744933	51.847836	10.857108	-0.922062	9.087809	-8.124234	-16.703980	1.906285	-1.236318	3.533574	50.911248	44.581314	11.634324	98.502104	23.145835	-8.739419	-8.112761	
1.4800	5.867089	-7.872113	12.830542	-0.119566	1.050997	0.006464	7.755957	-5.193692	22.243779	-4.613765	15.705066	-7.839256	50.938846	30.699408	-17.386247	103.516040	51.828159	11.350510	-1.540068	9.135991	-8.091656	-16.771181	1.864478	-1.265090	3.571311	50.948617	44.796695	11.406093	99.519792	23.646602	-8.788239	-8.331673	
1.4900	5.905251	-7.771060	12.933807	-0.120057	1.051022	0.006258	7.763547	-5.425365	22.095722	-4.722798	15.433302	-7.689281	51.031888	30.183856	-17.381890	105.277184	51.820450	12.027331	-2.170939	9.180201	-8.070563	-16.823011	1.824693	-1.313793	3.597858	50.964083	44.983011	11.140401	100.533227	24.150084	-8.838924	-8.547794	
1.5000	5.938744	-7.660061	13.039504	-0.120560	1.051041	0.006053	7.796548	-5.698098	21.973062	-4.856183	15.128978	-7.530906	51.126990	29.566426	-17.357483	107.030728	51.833494	13.007990	-2.869810	9.227367	-8.060830	-16.870701	1.786115	-1.383978	3.617539	50.944812	45.146480	10.823565	101.529225	24.680990	-8.888808	-8.760322	
1.5100	5.974445	-7.556187	13.134957	-0.121067	1.051046	0.005868	7.858999	-6.024582	21.900039	-5.033572	14.817487	-7.367790	51.220556	28.843300	-17.315459	108.735062	51.864788	14.487914	-3.674946	9.266817	-8.051116	-16.903447	1.746040	-1.457841	3.631034	50.886839	45.283728	10.469058	102.523890	25.215985	-8.942161	-8.963384	
1.5200	6.006006	-7.456930	13.222872	-0.121582	1.051040	0.005691	7.955011	-6.401821	21.898664	-5.260478	14.522931	-7.209155	51.291638	27.974738	-17.274118	110.367050	51.893288	16.723186	-4.670301	9.303334	-8.033769	-16.932472	1.700666	-1.527937	3.645922	50.775179	45.396544	10.072183	103.514504	25.764349	-8.988359	-9.150680	
1.5300	6.039989	-7.371747	13.298836	-0.122097	1.051018	0.005533	8.085730	-6.821990	21.991045	-5.541333	14.278319	-7.066357	51.313794	26.953018	-17.243228	111.882320	51.890136	19.994262	-5.909744	9.333247	-8.004286	-16.954312	1.648754	-1.587607	3.662781	50.610650	45.482891	9.647266	104.512114	26.291607	-9.017474	-9.319009	
1.5400	6.078766	-7.293435	13.375677	-0.122613	1.050979	0.005391	8.251012	-7.262628	22.188576	-5.863946	14.105521	-6.952761	51.258918	25.760184	-17.239480	113.252050	51.820538	24.584574	-7.446472	9.363184	-7.967569	-16.974708	1.589171	-1.649922	3.681430	50.397175	45.544847	9.199766	105.511369	26.780624	-9.013777	-9.470515	
1.5500	6.132775	-7.223661	13.452844	-0.123123	1.050918	0.005277	8.448423	-7.707232	22.495994	-6.219808	14.021690	-6.877052	51.116654	24.419513	-17.272443	114.449497	51.662196	30.663781	-9.248647	9.390363	-7.938355	-16.984045	1.529870	-1.727502	3.692179	50.155059	45.586507	8.746677	106.512240	27.189235	-8.969477	-9.609956	
1.5600	6.211609	-7.153305	13.536235	-0.123612	1.050832	0.005196	8.669183	-8.123032	22.892709	-6.579082	14.023067	-6.844893	50.886575	22.973295	-17.346045	115.490336	51.405093	38.149146	-11.184363	9.414806	-7.938544	-16.975980	1.483360	-1.837486	3.683683	49.907941	45.609903	8.296587	107.505541	27.482390	-8.877268	-9.740634	
1.5700	6.328085	-7.067951	13.617405	-0.124051	1.050716	0.005149	8.906701	-8.508017	23.355856	-6.934253	14.093040	-6.848398	50.631426	21.450337	-17.452490	116.461421	51.101254	46.354087	-12.941481	9.437083	-7.988462	-16.946345	1.461907	-1.994088	3.646410	49.668182	45.637233	7.857406	108.479836	27.666966	-8.738104	-9.871361	
1.5800	6.472344	-6.956256	13.688315	-0.124419	1.050579	0.005125	9.167866	-8.880898	23.860231	-7.281970	14.174275	-6.869767	50.433821	19.867312	-17.598418	117.497896	50.927839	54.235875	-14.338443	9.458387	-8.096463	-16.898659	1.473961	-2.195380	3.578763	49.453350	45.675659	7.424684	109.420048	27.776400	-8.566785	-10.008139	
1.5900	6.628137	-6.830237	13.733963	-0.124728	1.050439	0.005119	9.486786	-9.315025	24.454816	-7.679672	14.250683	-6.894424	50.397346	18.159752	-17.798558	118.731071	51.245565	60.760562	-15.323253	9.473699	-8.245458	-16.833269	1.513434	-2.419403	3.488079	49.264383	45.727911	6.998803	110.323385	27.872700	-8.377011	-10.155501	
1.6000	6.779860	-6.703843	13.756668	-0.124997	1.050302	0.005129	9.890652	-9.835139	25.175071	-8.143564	14.308252	-6.924758	50.549262	16.287671	-18.068488	120.237297	52.326422	65.331315	-16.015789	9.479833	-8.413260	-16.753393	1.569763	-2.644042	3.384301	49.100132	45.776545	6.578946	111.192648	27.997457	-8.184227	-10.312691	
1.6100	6.945126	-6.606570	13.767717	-0.125268	1.050151	0.005169	10.411721	-10.417687	26.183821	-8.708209	14.521708	-7.032507	50.794640	14.059933	-18.415445	122.052505	54.927567	67.719916	-16.924544	9.462959	-8.582378	-16.644698	1.637145	-2.845895	3.268822	48.937059	45.794398	6.182056	112.042952	28.191460	-7.992625	-10.477742	
1.6200	7.130807	-6.527645	13.780497	-0.125523	1.049965	0.005250	11.013431	-11.031869	27.367766	-9.323406	14.813817	-7.191529	51.133874	11.597746	-18.757905	124.093498	58.717421	68.222720	-18.200983	9.430684	-8.748474	-16.512973	1.704980	-3.040741	3.144756	48.770790	45.792308	5.804222	112.869716	28.454811	-7.830487	-10.643731	
1.6300	7.319935	-6.475699	13.795810	-0.125764	1.049773	0.005371	11.638129	-11.721040	28.587237	-10.008614	15.118805	-7.322654	51.573461	9.054898	-19.013247	126.213973	63.040262	67.219317	-19.870650	9.377733	-8.896131	-16.345794	1.756709	-3.234458	3.012521	48.604838	45.780649	5.429575	113.669703	28.793551	-7.718144	-10.800946	
1.6400	7.518492	-6.433820	13.821848	-0.125967	1.049539	0.005547	12.237628	-12.459125	29.601382	-10.663590	15.192548	-7.357618	52.237308	6.759355	-18.995093	128.303683	66.861815	65.173889	-21.444265	9.316730	-9.020304	-16.156742	1.780199	-3.444589	2.878984	48.449794	45.778569	5.062313	114.433837	29.186897	-7.686908	-10.935472	
